# xmcd CD database file
#
# Track frame offsets:
#	150
#	25347
#	43319
#	55565
#	70779
#	95815
#	110131
#	128623
#	149554
#	165921
#	185400
#	207692
#
# Disc length: 3035 seconds
#
# Revision: 0
# Processed by: cddbd v1.5.2PL0 Copyright (c) Steve Scherf et al.
# Submitted via: CDex 1.51
#
DISCID=b30bd90c
DTITLE=Karyn Oliver - Red Dress
DYEAR=2010
DGENRE=Blues
TTITLE0=October Day
TTITLE1=Right Now
TTITLE2=Drag Your Angel Up
TTITLE3=Candy Dish
TTITLE4=How Long
TTITLE5=All The More
TTITLE6=Happy Hour
TTITLE7=Cry On My Shoulder
TTITLE8=Heartbreak In Progress
TTITLE9=Be With You
TTITLE10=June Is Leaving
TTITLE11=Baby Don't Speak
EXTD=YEAR: 2010
EXTT0=
EXTT1=
EXTT2=
EXTT3=
EXTT4=
EXTT5=
EXTT6=
EXTT7=
EXTT8=
EXTT9=
EXTT10=
EXTT11=
PLAYORDER=
